<mxfile host="Electron" agent="Mozilla/5.0 (X11; Linux x86_64) AppleWebKit/537.36 (KHTML, like Gecko) draw.io/24.7.17 Chrome/128.0.6613.36 Electron/32.0.1 Safari/537.36" version="24.7.17">
  <diagram name="PÃ¡gina-1" id="k9ZxxDrOVAvM_6XJWCjO">
    <mxGraphModel dx="1114" dy="663" grid="1" gridSize="10" guides="1" tooltips="1" connect="1" arrows="1" fold="1" page="1" pageScale="1" pageWidth="827" pageHeight="1169" math="0" shadow="0">
      <root>
        <mxCell id="0" />
        <mxCell id="1" parent="0" />
        <mxCell id="5RtlcuyEoD4_XcSnjfnK-9" style="edgeStyle=orthogonalEdgeStyle;rounded=0;orthogonalLoop=1;jettySize=auto;html=1;entryX=0.5;entryY=0;entryDx=0;entryDy=0;" edge="1" parent="1" source="5RtlcuyEoD4_XcSnjfnK-1" target="5RtlcuyEoD4_XcSnjfnK-2">
          <mxGeometry relative="1" as="geometry" />
        </mxCell>
        <mxCell id="5RtlcuyEoD4_XcSnjfnK-1" value="&lt;b&gt;EMBEDDING&lt;/b&gt;" style="rounded=0;whiteSpace=wrap;html=1;fillColor=#e1d5e7;strokeColor=#9673a6;" vertex="1" parent="1">
          <mxGeometry x="290" y="110" width="100" height="50" as="geometry" />
        </mxCell>
        <mxCell id="5RtlcuyEoD4_XcSnjfnK-10" style="edgeStyle=orthogonalEdgeStyle;rounded=0;orthogonalLoop=1;jettySize=auto;html=1;entryX=0.5;entryY=0;entryDx=0;entryDy=0;" edge="1" parent="1" source="5RtlcuyEoD4_XcSnjfnK-2" target="5RtlcuyEoD4_XcSnjfnK-3">
          <mxGeometry relative="1" as="geometry" />
        </mxCell>
        <mxCell id="5RtlcuyEoD4_XcSnjfnK-2" value="&lt;b&gt;SCALED&lt;/b&gt;" style="rounded=0;whiteSpace=wrap;html=1;fillColor=#fff2cc;strokeColor=#d6b656;" vertex="1" parent="1">
          <mxGeometry x="290" y="210" width="100" height="50" as="geometry" />
        </mxCell>
        <mxCell id="5RtlcuyEoD4_XcSnjfnK-11" style="edgeStyle=orthogonalEdgeStyle;rounded=0;orthogonalLoop=1;jettySize=auto;html=1;entryX=0.5;entryY=0;entryDx=0;entryDy=0;" edge="1" parent="1" source="5RtlcuyEoD4_XcSnjfnK-3" target="5RtlcuyEoD4_XcSnjfnK-4">
          <mxGeometry relative="1" as="geometry" />
        </mxCell>
        <mxCell id="5RtlcuyEoD4_XcSnjfnK-3" value="&lt;b&gt;POSITIONAL&lt;/b&gt;&lt;div&gt;&lt;b&gt;ENCODING&lt;/b&gt;&lt;/div&gt;" style="rounded=0;whiteSpace=wrap;html=1;fillColor=#ffe6cc;strokeColor=#d79b00;" vertex="1" parent="1">
          <mxGeometry x="290" y="310" width="100" height="50" as="geometry" />
        </mxCell>
        <mxCell id="5RtlcuyEoD4_XcSnjfnK-12" style="edgeStyle=orthogonalEdgeStyle;rounded=0;orthogonalLoop=1;jettySize=auto;html=1;" edge="1" parent="1" source="5RtlcuyEoD4_XcSnjfnK-4" target="5RtlcuyEoD4_XcSnjfnK-5">
          <mxGeometry relative="1" as="geometry" />
        </mxCell>
        <mxCell id="5RtlcuyEoD4_XcSnjfnK-4" value="&lt;b&gt;DROPOUT&lt;/b&gt;" style="rounded=0;whiteSpace=wrap;html=1;fillColor=#f8cecc;strokeColor=#b85450;" vertex="1" parent="1">
          <mxGeometry x="290" y="410" width="100" height="50" as="geometry" />
        </mxCell>
        <mxCell id="5RtlcuyEoD4_XcSnjfnK-5" value="&lt;b&gt;ENCODING&lt;/b&gt;&lt;div&gt;&lt;b&gt;LAYER&lt;/b&gt;&lt;/div&gt;" style="rounded=0;whiteSpace=wrap;html=1;fillColor=#dae8fc;strokeColor=#6c8ebf;" vertex="1" parent="1">
          <mxGeometry x="290" y="510" width="100" height="50" as="geometry" />
        </mxCell>
        <mxCell id="5RtlcuyEoD4_XcSnjfnK-6" value="" style="shape=curlyBracket;whiteSpace=wrap;html=1;rounded=1;labelPosition=left;verticalLabelPosition=middle;align=right;verticalAlign=middle;fillColor=#e51400;fontColor=#ffffff;strokeColor=#B20000;" vertex="1" parent="1">
          <mxGeometry x="250" y="500" width="20" height="70" as="geometry" />
        </mxCell>
        <mxCell id="5RtlcuyEoD4_XcSnjfnK-7" value="&lt;font color=&quot;#ff0000&quot;&gt;num_layers&lt;/font&gt;&lt;div&gt;&lt;font color=&quot;#ff0000&quot;&gt;times&lt;/font&gt;&lt;/div&gt;" style="text;html=1;align=center;verticalAlign=middle;whiteSpace=wrap;rounded=0;" vertex="1" parent="1">
          <mxGeometry x="180" y="520" width="60" height="30" as="geometry" />
        </mxCell>
        <mxCell id="5RtlcuyEoD4_XcSnjfnK-14" value="" style="endArrow=classic;html=1;rounded=0;entryX=0.5;entryY=0;entryDx=0;entryDy=0;" edge="1" parent="1" target="5RtlcuyEoD4_XcSnjfnK-1">
          <mxGeometry width="50" height="50" relative="1" as="geometry">
            <mxPoint x="340" y="50" as="sourcePoint" />
            <mxPoint x="390" y="20" as="targetPoint" />
          </mxGeometry>
        </mxCell>
      </root>
    </mxGraphModel>
  </diagram>
</mxfile>
